REM DIRINDEX 1\2\3,1\2\4,1\2\5,1\2\6
REM DIRNAME cjc157,folder01,folder02,folder03,folder04,folder05
TITLE ""
FILE "022 022.mp3" MP3
  TRACK 01 AUDIO
    TITLE "0:"
    INDEX 01 00:00:00
  TRACK 02 AUDIO
    TITLE "3:cjc157_0806"
    INDEX 01 00:00:11
  TRACK 03 AUDIO
    TITLE "0:"
    INDEX 01 00:02:08
  TRACK 04 AUDIO
    TITLE "4:cjc157_0807"
    INDEX 01 00:02:51
  TRACK 05 AUDIO
    TITLE "0:"
    INDEX 01 00:03:63
  TRACK 06 AUDIO
    TITLE "5:cjc157_0808"
    INDEX 01 00:04:33
  TRACK 07 AUDIO
    TITLE "0:"
    INDEX 01 00:08:19
  TRACK 08 AUDIO
    TITLE "3:cjc157_0809"
    INDEX 01 00:08:62
  TRACK 09 AUDIO
    TITLE "0:"
    INDEX 01 00:10:31
  TRACK 10 AUDIO
    TITLE "4:cjc157_0810"
    INDEX 01 00:10:74
  TRACK 11 AUDIO
    TITLE "0:"
    INDEX 01 00:12:20
  TRACK 12 AUDIO
    TITLE "5:cjc157_0811"
    INDEX 01 00:12:61
  TRACK 13 AUDIO
    TITLE "0:"
    INDEX 01 00:15:23
  TRACK 14 AUDIO
    TITLE "5:cjc157_0812"
    INDEX 01 00:15:68
  TRACK 15 AUDIO
    TITLE "0:"
    INDEX 01 00:17:51
  TRACK 16 AUDIO
    TITLE "5:cjc157_0813"
    INDEX 01 00:18:21
  TRACK 17 AUDIO
    TITLE "0:"
    INDEX 01 00:21:06
  TRACK 18 AUDIO
    TITLE "5:cjc157_0814"
    INDEX 01 00:21:49
  TRACK 19 AUDIO
    TITLE "0:"
    INDEX 01 00:23:65
  TRACK 20 AUDIO
    TITLE "3:cjc157_0815"
    INDEX 01 00:24:35
  TRACK 21 AUDIO
    TITLE "0:"
    INDEX 01 00:25:66
  TRACK 22 AUDIO
    TITLE "4:cjc157_0816"
    INDEX 01 00:26:34
  TRACK 23 AUDIO
    TITLE "0:"
    INDEX 01 00:27:55
  TRACK 24 AUDIO
    TITLE "5:cjc157_0817"
    INDEX 01 00:28:25
  TRACK 25 AUDIO
    TITLE "0:"
    INDEX 01 00:30:54
  TRACK 26 AUDIO
    TITLE "3:cjc157_0818"
    INDEX 01 00:31:18
  TRACK 27 AUDIO
    TITLE "0:"
    INDEX 01 00:32:50
  TRACK 28 AUDIO
    TITLE "4:cjc157_0819"
    INDEX 01 00:33:21
  TRACK 29 AUDIO
    TITLE "0:"
    INDEX 01 00:34:38
  TRACK 30 AUDIO
    TITLE "5:cjc157_0820"
    INDEX 01 00:35:04
  TRACK 31 AUDIO
    TITLE "0:"
    INDEX 01 00:37:07
  TRACK 32 AUDIO
    TITLE "5:cjc157_0821"
    INDEX 01 00:37:50
  TRACK 33 AUDIO
    TITLE "0:"
    INDEX 01 00:40:60
  TRACK 34 AUDIO
    TITLE "3:cjc157_0822"
    INDEX 01 00:41:36
  TRACK 35 AUDIO
    TITLE "0:"
    INDEX 01 00:43:05
  TRACK 36 AUDIO
    TITLE "4:cjc157_0823"
    INDEX 01 00:43:48
  TRACK 37 AUDIO
    TITLE "0:"
    INDEX 01 00:44:60
  TRACK 38 AUDIO
    TITLE "5:cjc157_0824"
    INDEX 01 00:45:35
  TRACK 39 AUDIO
    TITLE "0:"
    INDEX 01 00:48:24
  TRACK 40 AUDIO
    TITLE "5:cjc157_0825"
    INDEX 01 00:48:63
  TRACK 41 AUDIO
    TITLE "0:"
    INDEX 01 00:51:71
  TRACK 42 AUDIO
    TITLE "3:cjc157_0826"
    INDEX 01 00:52:43
  TRACK 43 AUDIO
    TITLE "0:"
    INDEX 01 00:54:13
  TRACK 44 AUDIO
    TITLE "4:cjc157_0827"
    INDEX 01 00:54:58
  TRACK 45 AUDIO
    TITLE "0:"
    INDEX 01 00:56:02
  TRACK 46 AUDIO
    TITLE "5:cjc157_0828"
    INDEX 01 00:56:45
  TRACK 47 AUDIO
    TITLE "0:"
    INDEX 01 00:59:39
  TRACK 48 AUDIO
    TITLE "5:cjc157_0829"
    INDEX 01 01:00:08
  TRACK 49 AUDIO
    TITLE "0:"
    INDEX 01 01:02:03
  TRACK 50 AUDIO
    TITLE "3:cjc157_0830"
    INDEX 01 01:02:54
  TRACK 51 AUDIO
    TITLE "0:"
    INDEX 01 01:04:19
  TRACK 52 AUDIO
    TITLE "4:cjc157_0831"
    INDEX 01 01:04:66
  TRACK 53 AUDIO
    TITLE "0:"
    INDEX 01 01:06:20
  TRACK 54 AUDIO
    TITLE "5:cjc157_0832"
    INDEX 01 01:06:67
  TRACK 55 AUDIO
    TITLE "0:"
    INDEX 01 01:09:09
  TRACK 56 AUDIO
    TITLE "5:cjc157_0833"
    INDEX 01 01:09:56
  TRACK 57 AUDIO
    TITLE "0:"
    INDEX 01 01:12:56
  TRACK 58 AUDIO
    TITLE "3:cjc157_0834"
    INDEX 01 01:13:28
  TRACK 59 AUDIO
    TITLE "0:"
    INDEX 01 01:14:72
  TRACK 60 AUDIO
    TITLE "4:cjc157_0835"
    INDEX 01 01:15:42
  TRACK 61 AUDIO
    TITLE "0:"
    INDEX 01 01:16:50
  TRACK 62 AUDIO
    TITLE "5:cjc157_0836"
    INDEX 01 01:17:22
  TRACK 63 AUDIO
    TITLE "0:"
    INDEX 01 01:21:61
  TRACK 64 AUDIO
    TITLE "3:cjc157_0837"
    INDEX 01 01:22:31
  TRACK 65 AUDIO
    TITLE "0:"
    INDEX 01 01:23:69
  TRACK 66 AUDIO
    TITLE "4:cjc157_0838"
    INDEX 01 01:24:41
  TRACK 67 AUDIO
    TITLE "0:"
    INDEX 01 01:25:45
  TRACK 68 AUDIO
    TITLE "5:cjc157_0839"
    INDEX 01 01:26:19
  TRACK 69 AUDIO
    TITLE "0:"
    INDEX 01 01:27:57
  TRACK 70 AUDIO
    TITLE "5:cjc157_0840"
    INDEX 01 01:28:31
  TRACK 71 AUDIO
    TITLE "0:"
    INDEX 01 01:30:26
  TRACK 72 AUDIO
    TITLE "5:cjc157_0841"
    INDEX 01 01:31:00
  TRACK 73 AUDIO
    TITLE "0:"
    INDEX 01 01:33:01
  TRACK 74 AUDIO
    TITLE "3:cjc157_0842"
    INDEX 01 01:33:46
  TRACK 75 AUDIO
    TITLE "0:"
    INDEX 01 01:35:18
  TRACK 76 AUDIO
    TITLE "4:cjc157_0843"
    INDEX 01 01:35:59
  TRACK 77 AUDIO
    TITLE "0:"
    INDEX 01 01:37:13
  TRACK 78 AUDIO
    TITLE "5:cjc157_0844"
    INDEX 01 01:37:60
  TRACK 79 AUDIO
    TITLE "0:"
    INDEX 01 01:39:74
  TRACK 80 AUDIO
    TITLE "5:cjc157_0845"
    INDEX 01 01:40:48
  TRACK 81 AUDIO
    TITLE "0:"
    INDEX 01 01:43:03
  TRACK 82 AUDIO
    TITLE "5:cjc157_0846"
    INDEX 01 01:43:45
  TRACK 83 AUDIO
    TITLE "0:"
    INDEX 01 01:45:42
  TRACK 84 AUDIO
    TITLE "5:cjc157_0847"
    INDEX 01 01:46:10
  TRACK 85 AUDIO
    TITLE "0:"
    INDEX 01 01:48:22
